<svg xmlns="http://www.w3.org/2000/svg" viewBox="0 0 512 512">
  <!-- Fundo -->
  <rect width="512" height="512" rx="80" fill="#1a3a6b"/>
  <!-- Logo WM -->
  <!-- i - ponto -->
  <circle cx="90" cy="155" r="28" fill="none" stroke="#56bfe9" stroke-width="14"/>
  <!-- i - haste -->
  <path d="M75 185 Q75 260 90 265 Q105 270 105 185" fill="none" stroke="white" stroke-width="20" stroke-linecap="round"/>
  <!-- N -->
  <path d="M130 185 Q130 140 155 140 L205 265" fill="none" stroke="white" stroke-width="20" stroke-linecap="round"/>
  <!-- T -->
  <path d="M205 185 L205 265" fill="none" stroke="white" stroke-width="20" stroke-linecap="round"/>
  <!-- E -->
  <path d="M220 185 L290 185 M220 225 L270 225 M220 265 L290 265 M220 185 L220 265" fill="none" stroke="white" stroke-width="20" stroke-linecap="round" stroke-linejoin="round"/>
  <!-- C -->
  <path d="M420 195 Q390 170 360 200 Q330 230 350 260 Q370 290 410 275" fill="none" stroke="white" stroke-width="20" stroke-linecap="round"/>
  <!-- Subtítulo -->
  <text x="256" y="360" fill="#56bfe9" font-size="36" font-weight="700" font-family="Segoe UI,Arial,sans-serif" text-anchor="middle" letter-spacing="4">ENGENHARIA</text>
  <text x="256" y="400" fill="rgba(255,255,255,0.6)" font-size="28" font-weight="500" font-family="Segoe UI,Arial,sans-serif" text-anchor="middle" letter-spacing="6">INTEGRADA</text>
</svg>
